<svg xmlns="http://www.w3.org/2000/svg" viewBox="0 0 1024 1024" width="1024" height="1024">
  <g fill="none" stroke="#000000" stroke-width="34" stroke-linejoin="round" stroke-linecap="round">
    <!-- Paper feeder, behind the body -->
    <path d="M305 350V185Q305 155 335 155H689Q719 155 719 185V350"/>

    <!-- Printer body -->
    <path d="M160 350H864Q900 350 900 386V650Q900 690 860 690H164Q124 690 124 650V386Q124 350 160 350Z"/>

    <!-- Output slot -->
    <path d="M250 500H774Q790 500 790 516V585Q790 600 774 600H250Q234 600 234 585V516Q234 500 250 500Z"/>

    <!-- Printed page, in front of the body -->
    <path d="M290 550L734 550L770 820Q773 845 748 845H276Q251 845 254 820Z"/>
  </g>

  <!-- Status light -->
  <circle cx="245" cy="430" r="26" fill="#000000"/>
</svg>
